# xmcd CD database file
#
# Track frame offsets:
#	150
#	13674
#	25346
#	37361
#	49096
#	61821
#	72026
#	87664
#	102559
#	117568
#	130072
#	143078
#	153397
#	167474
#	178931
#	192273
#	209495
#	221163
#	229844
#	241541
#	253305
#	269277
#	278502
#	292575
#	304912
#
# Disc length: 4255 seconds
#
# Revision: 2
# Processed by: cddbd v1.5.2PL0 Copyright (c) Steve Scherf et al.
# Submitted via: CDex 1.51
#
DISCID=75109d19
DTITLE=Ludek Koutny on harmonica - The Golden Western Melodies
DYEAR=2009
DGENRE=Instrumental Pop
TTITLE0=E.Morricone - Harmonica
TTITLE1=M.Bottcher - Old Shaterhand
TTITLE2=D.Black and J.Barry - Born Free
TTITLE3=F.Neil - Everybodys Talking
TTITLE4=M.Bottcher - Winnetou - Der Letzte Schuss
TTITLE5=E.Bernnstein - The Magnificent Seven
TTITLE6=E.Morricone - Once Upon in The West
TTITLE7=D.Tiomkin - Rio Bravo
TTITLE8=Traditional - The Red River
TTITLE9=E.Morricone - The Good, The Bad and The Ugly
TTITLE10=E.Gold - Exodus
TTITLE11=R.Orbison - Rollin On
TTITLE12=M.Phillips - The Sky Rivers
TTITLE13=E.Morricone - Per qualche dollaro in piu
TTITLE14=M.Bottcher - Winnetou
TTITLE15=O.Jones - Mackennas Gold
TTITLE16=M.Phillips - North To Alaska
TTITLE17=J.Moross - The Big Country
TTITLE18=B.Bacharach - Raindrops Keep Failing On My Head
TTITLE19=D.Tiomkin - The Green Leaves Of Summer
TTITLE20=M.Bottcher - Winnetou - Zwischen den Geiern
TTITLE21=A.Newman - How The West Was Won
TTITLE22=M.Bottcher - Der Schatz im Silbersee
TTITLE23=J.Williams - The Missouri Break
TTITLE24=D.Tiomkin - High Noon
EXTD=YEAR: 2009
EXTT0=
EXTT1=
EXTT2=
EXTT3=
EXTT4=
EXTT5=
EXTT6=
EXTT7=
EXTT8=
EXTT9=
EXTT10=
EXTT11=
EXTT12=
EXTT13=
EXTT14=
EXTT15=
EXTT16=
EXTT17=
EXTT18=
EXTT19=
EXTT20=
EXTT21=
EXTT22=
EXTT23=
EXTT24=
PLAYORDER=
